<svg width="27" height="23" viewBox="0 0 27 23" fill="none" xmlns="http://www.w3.org/2000/svg">
<path d="M1.03855 10.3147C0.991044 10.1251 0.987396 9.92714 1.02788 9.73589C1.06836 9.54464 1.15191 9.36514 1.27217 9.21103C1.39244 9.05692 1.54625 8.93225 1.72193 8.84651C1.8976 8.76076 2.09051 8.71619 2.28599 8.71619H24.7143C24.9097 8.71624 25.1024 8.7608 25.278 8.84647C25.4535 8.93214 25.6073 9.05668 25.7275 9.21064C25.8478 9.36459 25.9313 9.54392 25.9719 9.735C26.0125 9.92608 26.009 10.1239 25.9618 10.3134L23.6328 19.6281C23.4937 20.1846 23.1726 20.6786 22.7206 21.0316C22.2685 21.3846 21.7114 21.5764 21.1379 21.5765H5.86244C5.28888 21.5764 4.73181 21.3846 4.27976 21.0316C3.82772 20.6786 3.50663 20.1846 3.36754 19.6281L1.03855 10.3147Z" stroke="black" stroke-width="2" stroke-linejoin="round"/>
<path d="M9.64202 13.8603V16.4323M17.3582 13.8603V16.4323M5.78394 8.71617L10.928 1M21.2163 8.71617L16.0722 1" stroke="black" stroke-width="2" stroke-linecap="round"/>
</svg>
